<?xml version="1.0" standalone="no"?>
<svg version="1.0" xmlns="http://www.w3.org/2000/svg"
 width="512.000000pt" height="512.000000pt" viewBox="0 0 512.000000 512.000000"
 preserveAspectRatio="xMidYMid meet">

<g transform="translate(0.000000,512.000000) scale(0.100000,-0.100000)"
fill="#000000" stroke="none">
<path d="M1922 5109 c-275 -46 -518 -301 -572 -599 -6 -36 -13 -75 -16 -87 -4
-20 -10 -21 -92 -22 -180 -2 -328 -66 -462 -200 -131 -131 -195 -276 -207
-471 -12 -184 30 -344 152 -570 135 -253 208 -436 264 -661 67 -270 64 -217
68 -1394 l3 -1070 21 -17 c28 -24 54 -23 79 2 21 21 21 24 17 1088 -3 1163 -2
1124 -63 1382 -59 249 -122 411 -269 696 -58 112 -113 233 -125 275 -30 103
-37 262 -16 359 46 217 217 401 420 449 54 13 192 17 248 6 55 -11 73 13 81
109 24 283 184 508 415 588 94 32 248 32 348 1 84 -27 200 -101 269 -172 65
-67 85 -67 150 0 195 198 456 250 692 138 100 -47 207 -158 261 -269 49 -100
70 -176 79 -283 9 -113 8 -113 155 -109 87 2 140 -2 181 -12 186 -50 331 -189
394 -380 24 -72 27 -96 26 -211 0 -164 -25 -256 -120 -435 -184 -346 -262
-552 -317 -836 -43 -224 -46 -305 -46 -1361 0 -990 0 -1003 20 -1023 24 -24
49 -25 76 -6 19 14 19 40 25 1088 6 1188 3 1137 74 1413 57 222 133 410 255
633 112 205 160 366 160 532 0 399 -301 720 -676 720 -87 0 -94 4 -94 54 0 50
-42 186 -85 272 -138 282 -446 439 -745 380 -105 -20 -241 -85 -328 -156 l-62
-51 -48 39 c-178 149 -376 206 -590 171z"/>
<path d="M1915 4737 c-127 -61 -203 -177 -223 -339 -30 -246 91 -494 287 -591
57 -28 76 -32 146 -32 67 0 89 4 136 28 268 131 294 589 48 835 -83 83 -151
115 -259 119 -74 4 -92 1 -135 -20z m151 -164 c98 -121 146 -286 125 -433 -12
-82 -55 -182 -94 -219 l-25 -22 -50 25 c-133 67 -223 257 -209 441 8 113 53
197 132 246 49 31 69 25 121 -38z"/>
<path d="M2971 4744 c-132 -48 -238 -164 -296 -324 -33 -90 -44 -233 -25 -323
17 -83 73 -188 126 -237 69 -63 124 -85 219 -85 71 0 88 4 147 33 126 62 245
225 277 380 15 72 14 216 -3 277 -31 118 -99 212 -188 260 -66 36 -186 45
-257 19z m99 -155 c98 -136 104 -348 15 -527 -35 -69 -114 -162 -138 -162 -29
0 -106 60 -131 102 -31 53 -56 146 -56 209 0 63 35 193 66 246 50 87 148 173
196 173 10 0 31 -18 48 -41z"/>
<path d="M1152 4031 c-96 -33 -176 -119 -207 -224 -22 -75 -19 -210 6 -293 49
-163 162 -300 302 -369 67 -33 90 -39 160 -43 141 -7 243 48 304 165 40 76 57
160 50 248 -29 334 -353 606 -615 516z m169 -180 c71 -73 128 -173 148 -261
16 -67 13 -191 -4 -241 -24 -69 -62 -119 -88 -119 -67 0 -202 108 -260 207
-81 141 -89 319 -16 411 28 37 88 72 123 72 22 0 44 -15 97 -69z"/>
<path d="M3768 4039 c-110 -26 -246 -130 -315 -242 -76 -122 -98 -195 -97
-327 0 -84 4 -116 22 -161 29 -72 85 -137 153 -174 50 -28 62 -30 154 -30 95
0 104 2 179 37 289 139 423 546 256 777 -77 106 -215 153 -352 120z m84 -164
c34 -48 58 -131 58 -200 0 -149 -89 -329 -209 -424 l-42 -33 -44 16 c-55 21
-110 82 -126 138 -17 60 -14 168 6 230 46 140 155 264 270 306 44 16 56 11 87
-33z"/>
<path d="M2390 3632 c-179 -50 -310 -167 -490 -437 -30 -44 -96 -136 -147
-204 -110 -146 -157 -227 -196 -336 -106 -299 40 -594 327 -660 67 -16 310
-22 393 -10 120 17 294 23 405 14 278 -23 361 -26 449 -18 188 17 307 81 388
208 55 85 74 154 75 271 0 93 -3 115 -30 192 -39 108 -89 193 -207 352 -51 68
-130 179 -177 247 -143 208 -278 327 -427 375 -77 25 -283 28 -363 6z m282
-149 c77 -59 160 -158 278 -328 49 -71 119 -168 155 -215 89 -115 148 -219
180 -315 24 -70 27 -92 23 -181 -3 -92 -6 -107 -40 -176 -24 -48 -55 -92 -87
-121 l-50 -47 -78 0 c-43 0 -173 7 -289 17 -203 16 -220 16 -427 -2 -396 -33
-526 -6 -623 131 -46 64 -67 135 -67 220 1 122 61 260 178 414 36 47 95 128
132 180 137 195 196 270 260 331 101 93 202 135 340 138 47 1 57 -3 115 -46z"/>
</g>
</svg>
